<mxfile host="app.diagrams.net" modified="2022-03-28T11:53:17.925Z" agent="5.0 (Windows NT 10.0; Win64; x64) AppleWebKit/537.36 (KHTML, like Gecko) Chrome/99.0.4844.51 Safari/537.36 Edg/99.0.1150.39" etag="UJSCZ9USUzqkv777K8wy" version="17.2.4" type="github">
  <diagram id="HfGuGMi2uAPuYGGLYijw" name="Page-1">
    <mxGraphModel dx="1058" dy="794" grid="1" gridSize="10" guides="1" tooltips="1" connect="1" arrows="1" fold="1" page="1" pageScale="1" pageWidth="827" pageHeight="1169" math="0" shadow="0">
      <root>
        <mxCell id="0" />
        <mxCell id="1" parent="0" />
        <mxCell id="ePp0Dlh90hO3uwF11HIo-1" value="&lt;span style=&quot;font-size: 20px&quot;&gt;中&lt;br&gt;国&lt;br&gt;近&lt;br&gt;代&lt;br&gt;革&lt;br&gt;命&lt;br&gt;历&lt;br&gt;史&lt;br&gt;时&lt;br&gt;空&lt;br&gt;知&lt;br&gt;识&lt;br&gt;检&lt;br&gt;索&lt;br&gt;与&lt;br&gt;演&lt;br&gt;化&lt;br&gt;信&lt;br&gt;息&lt;br&gt;系&lt;br&gt;统&lt;/span&gt;" style="rounded=0;whiteSpace=wrap;html=1;strokeWidth=2;" vertex="1" parent="1">
          <mxGeometry x="170" y="150" width="80" height="550" as="geometry" />
        </mxCell>
        <mxCell id="ePp0Dlh90hO3uwF11HIo-2" value="" style="rounded=1;whiteSpace=wrap;html=1;fontSize=16;strokeWidth=2;dashed=1;fontStyle=0" vertex="1" parent="1">
          <mxGeometry x="280" y="600" width="460" height="100" as="geometry" />
        </mxCell>
        <mxCell id="ePp0Dlh90hO3uwF11HIo-3" value="&lt;font style=&quot;font-size: 16px;&quot;&gt;中国近代革命历史时空演化知识图谱&lt;/font&gt;" style="shape=cylinder3;whiteSpace=wrap;html=1;boundedLbl=1;backgroundOutline=1;size=15;fontSize=16;strokeWidth=2;fontStyle=0" vertex="1" parent="1">
          <mxGeometry x="360" y="610" width="160" height="80" as="geometry" />
        </mxCell>
        <mxCell id="ePp0Dlh90hO3uwF11HIo-7" value="中国近代革命历史文本语料库" style="shape=cylinder3;whiteSpace=wrap;html=1;boundedLbl=1;backgroundOutline=1;size=15;fontSize=16;strokeWidth=2;fontStyle=0" vertex="1" parent="1">
          <mxGeometry x="560" y="610" width="140" height="80" as="geometry" />
        </mxCell>
        <mxCell id="ePp0Dlh90hO3uwF11HIo-8" value="" style="rounded=1;whiteSpace=wrap;html=1;fontSize=16;strokeWidth=2;dashed=1;fontStyle=0" vertex="1" parent="1">
          <mxGeometry x="280" y="410" width="460" height="170" as="geometry" />
        </mxCell>
        <mxCell id="ePp0Dlh90hO3uwF11HIo-10" value="" style="rounded=1;whiteSpace=wrap;html=1;fontSize=16;strokeWidth=2;dashed=1;fontStyle=0" vertex="1" parent="1">
          <mxGeometry x="280" y="150" width="460" height="90" as="geometry" />
        </mxCell>
        <mxCell id="ePp0Dlh90hO3uwF11HIo-14" value="&lt;pre style=&quot;font-size: 16px&quot;&gt;&lt;font style=&quot;font-size: 16px&quot; face=&quot;Times New Roman&quot;&gt;Jena&lt;br style=&quot;font-size: 16px&quot;&gt;&lt;span style=&quot;color: rgb(51 , 51 , 51) ; font-size: 16px ; background-color: rgb(255 , 255 , 255)&quot;&gt;语义网操作框架&lt;/span&gt;&lt;/font&gt;&lt;/pre&gt;" style="rounded=0;whiteSpace=wrap;html=1;fontSize=16;strokeWidth=2;fontStyle=0" vertex="1" parent="1">
          <mxGeometry x="360" y="500" width="140" height="60" as="geometry" />
        </mxCell>
        <mxCell id="ePp0Dlh90hO3uwF11HIo-15" value="&lt;font face=&quot;Times New Roman&quot;&gt;Java-SpringBoot&lt;br style=&quot;font-size: 16px&quot;&gt;跨平台应用后端服务框架&lt;/font&gt;" style="rounded=0;whiteSpace=wrap;html=1;fontSize=16;strokeWidth=2;fontStyle=0" vertex="1" parent="1">
          <mxGeometry x="360" y="430" width="350" height="60" as="geometry" />
        </mxCell>
        <mxCell id="ePp0Dlh90hO3uwF11HIo-16" value="&lt;font face=&quot;Times New Roman&quot;&gt;SPARQL&lt;br style=&quot;font-size: 16px&quot;&gt;本体知识查询语言&lt;/font&gt;" style="rounded=0;whiteSpace=wrap;html=1;fontSize=16;strokeWidth=2;fontStyle=0" vertex="1" parent="1">
          <mxGeometry x="540" y="500" width="170" height="60" as="geometry" />
        </mxCell>
        <mxCell id="ePp0Dlh90hO3uwF11HIo-17" value="" style="rounded=1;whiteSpace=wrap;html=1;fontSize=16;strokeWidth=2;dashed=1;fontStyle=0" vertex="1" parent="1">
          <mxGeometry x="280" y="260" width="460" height="130" as="geometry" />
        </mxCell>
        <mxCell id="ePp0Dlh90hO3uwF11HIo-18" value="&lt;span style=&quot;font-size: 16px;&quot;&gt;时空知识检索&lt;/span&gt;" style="rounded=1;whiteSpace=wrap;html=1;fontSize=16;strokeWidth=2;fontStyle=0" vertex="1" parent="1">
          <mxGeometry x="360" y="165" width="120" height="60" as="geometry" />
        </mxCell>
        <mxCell id="ePp0Dlh90hO3uwF11HIo-19" value="&lt;span style=&quot;font-size: 16px;&quot;&gt;时空知识演化&lt;/span&gt;" style="rounded=1;whiteSpace=wrap;html=1;fontSize=16;strokeWidth=2;fontStyle=0" vertex="1" parent="1">
          <mxGeometry x="570" y="165" width="120" height="60" as="geometry" />
        </mxCell>
        <mxCell id="ePp0Dlh90hO3uwF11HIo-20" value="&lt;span style=&quot;font-size: 16px;&quot;&gt;时空演化可视化地图&lt;/span&gt;" style="rounded=1;whiteSpace=wrap;html=1;fontSize=16;strokeWidth=2;fontStyle=0" vertex="1" parent="1">
          <mxGeometry x="360" y="269" width="160" height="30" as="geometry" />
        </mxCell>
        <mxCell id="ePp0Dlh90hO3uwF11HIo-21" value="&lt;span style=&quot;font-size: 16px;&quot;&gt;探索式检索页&lt;/span&gt;" style="rounded=1;whiteSpace=wrap;html=1;fontSize=16;strokeWidth=2;fontStyle=0" vertex="1" parent="1">
          <mxGeometry x="360" y="307" width="160" height="30" as="geometry" />
        </mxCell>
        <mxCell id="ePp0Dlh90hO3uwF11HIo-22" value="&lt;span style=&quot;font-size: 16px;&quot;&gt;时空线详情页&lt;/span&gt;" style="rounded=1;whiteSpace=wrap;html=1;fontSize=16;strokeWidth=2;fontStyle=0" vertex="1" parent="1">
          <mxGeometry x="360" y="345" width="160" height="30" as="geometry" />
        </mxCell>
        <mxCell id="ePp0Dlh90hO3uwF11HIo-23" value="应用层" style="rounded=0;whiteSpace=wrap;html=1;fontSize=16;strokeWidth=2;fontStyle=0" vertex="1" parent="1">
          <mxGeometry x="301" y="160" width="30" height="70" as="geometry" />
        </mxCell>
        <mxCell id="ePp0Dlh90hO3uwF11HIo-24" value="服务层前端" style="rounded=0;whiteSpace=wrap;html=1;fontSize=16;strokeWidth=2;fontStyle=0" vertex="1" parent="1">
          <mxGeometry x="300" y="270" width="30" height="110" as="geometry" />
        </mxCell>
        <mxCell id="ePp0Dlh90hO3uwF11HIo-25" value="服务层后端" style="rounded=0;whiteSpace=wrap;html=1;fontSize=16;strokeWidth=2;fontStyle=0" vertex="1" parent="1">
          <mxGeometry x="300" y="420" width="30" height="150" as="geometry" />
        </mxCell>
        <mxCell id="ePp0Dlh90hO3uwF11HIo-26" value="数据层" style="rounded=0;whiteSpace=wrap;html=1;fontSize=16;strokeWidth=2;fontStyle=0" vertex="1" parent="1">
          <mxGeometry x="300" y="610" width="30" height="80" as="geometry" />
        </mxCell>
        <mxCell id="ePp0Dlh90hO3uwF11HIo-29" value="&lt;font face=&quot;Times New Roman&quot;&gt;Javascript-React&lt;br style=&quot;font-size: 16px&quot;&gt;跨平台应用前端框架&lt;/font&gt;" style="rounded=0;whiteSpace=wrap;html=1;fontSize=16;strokeWidth=2;fontStyle=0" vertex="1" parent="1">
          <mxGeometry x="560" y="270" width="150" height="50" as="geometry" />
        </mxCell>
        <mxCell id="ePp0Dlh90hO3uwF11HIo-30" value="&lt;font face=&quot;Times New Roman&quot;&gt;Echart&lt;br&gt;开源可视化图标库&lt;/font&gt;" style="rounded=0;whiteSpace=wrap;html=1;fontSize=16;strokeWidth=2;fontStyle=0" vertex="1" parent="1">
          <mxGeometry x="560" y="330" width="150" height="45" as="geometry" />
        </mxCell>
        <mxCell id="ePp0Dlh90hO3uwF11HIo-31" value="&lt;font face=&quot;Times New Roman&quot;&gt;API&lt;/font&gt;" style="rounded=1;whiteSpace=wrap;html=1;fontFamily=Helvetica;fontSize=16;strokeWidth=2;" vertex="1" parent="1">
          <mxGeometry x="495" y="380" width="65" height="40" as="geometry" />
        </mxCell>
      </root>
    </mxGraphModel>
  </diagram>
</mxfile>
